<svg width="1080" height="1080" viewBox="0 0 1080 1080" fill="none" xmlns="http://www.w3.org/2000/svg">
<path d="M1075.87 607.098C1042.83 873.669 815.513 1080 540 1080C365.987 1080 211.2 997.689 112.445 869.879C259.088 800.529 402.485 810.416 568.17 798.961C726.849 787.991 895.198 756.397 1075.87 607.098Z" fill="#0A5ECF"/>
<path d="M887.985 127.061C1005.41 226.117 1080 374.348 1080 540C1080 546.267 1079.89 552.508 1079.68 558.723C713.468 882.928 404.773 689.633 92.0374 841.641C75.7981 817.571 61.4497 792.121 49.2003 765.506C352.248 406.551 790.95 520.026 887.985 127.061Z" fill="#01BC62"/>
<path d="M540 0C659.067 0 769.133 38.5376 858.407 103.818L854.699 118.842C832.174 210.059 790.473 270.356 736.49 315.922C681.43 362.398 612.45 394.599 532.815 427.324C379.295 490.411 190.342 553.115 34.4297 730.135C12.1763 670.995 0 606.92 0 540C0 241.766 241.766 0 540 0Z" fill="#AD0B0B"/>
</svg>
